STARTFONT 2.1
FONT -Linotype-Helvetica-Bold-R-Normal-Sans-12-120-72-72-P-67-ISO8859-1
SIZE 12 72 72
FONTBOUNDINGBOX 17 15 -4 -3

STARTPROPERTIES 22
FONTNAME_REGISTRY "-"
FOUNDRY "Linotype"
FAMILY_NAME "Helvetica"
WEIGHT_NAME "Bold"
SLANT "R"
SETWIDTH_NAME "Normal"
ADD_STYLE_NAME "Sans"
PIXEL_SIZE 12
POINT_SIZE 120
RESOLUTION_X 72
RESOLUTION_Y 72
SPACING "P"
CHARSET_REGISTRY "ISO8859"
CHARSET_ENCODING "1"
FULL_NAME "Helvetica-Bold"
AVERAGE_WIDTH 67
WEIGHT 10
X_HEIGHT 7
QUAD_WIDTH 7
DEFAULT_CHAR 32
FONT_DESCENT 3
FONT_ASCENT 12
ENDPROPERTIES

CHARS 190

STARTCHAR space
ENCODING 32
SWIDTH 278 0
DWIDTH 3 0
BBX 1 1 0 0
BITMAP
00
ENDCHAR

STARTCHAR exclam
ENCODING 33
SWIDTH 333 0
DWIDTH 4 0
BBX 2 9 1 0
BITMAP
C0
C0
C0
C0
C0
40
00
C0
C0
ENDCHAR

STARTCHAR quotedbl
ENCODING 34
SWIDTH 474 0
DWIDTH 6 0
BBX 5 3 0 6
BITMAP
D8
D8
D8
ENDCHAR

STARTCHAR numbersign
ENCODING 35
SWIDTH 556 0
DWIDTH 7 0
BBX 7 9 0 0
BITMAP
24
6C
FE
FE
48
FC
FC
D8
90
ENDCHAR

STARTCHAR dollar
ENCODING 36
SWIDTH 556 0
DWIDTH 7 0
BBX 7 12 0 -3
BITMAP
7C
FE
D0
70
38
1C
16
FE
7C
10
10
10
ENDCHAR

STARTCHAR percent
ENCODING 37
SWIDTH 889 0
DWIDTH 11 0
BBX 11 9 0 0
BITMAP
7180
DB00
8A00
DE00
75C0
0B60
1A20
3360
21C0
ENDCHAR

STARTCHAR ampersand
ENCODING 38
SWIDTH 722 0
DWIDTH 9 0
BBX 9 9 0 0
BITMAP
3800
7C00
6C00
3800
7B00
DB00
CE00
FF00
7B80
ENDCHAR

STARTCHAR quoteright
ENCODING 39
SWIDTH 278 0
DWIDTH 3 0
BBX 2 3 1 6
BITMAP
C0
C0
C0
ENDCHAR

STARTCHAR parenleft
ENCODING 40
SWIDTH 333 0
DWIDTH 4 0
BBX 4 12 0 -3
BITMAP
30
60
60
E0
C0
C0
C0
C0
E0
60
60
30
ENDCHAR

STARTCHAR parenright
ENCODING 41
SWIDTH 333 0
DWIDTH 4 0
BBX 4 12 0 -3
BITMAP
C0
60
60
70
30
30
30
30
70
60
60
C0
ENDCHAR

STARTCHAR asterisk
ENCODING 42
SWIDTH 389 0
DWIDTH 5 0
BBX 4 4 0 5
BITMAP
20
F0
60
F0
ENDCHAR

STARTCHAR plus
ENCODING 43
SWIDTH 584 0
DWIDTH 7 0
BBX 6 6 1 0
BITMAP
30
30
FC
FC
30
30
ENDCHAR

STARTCHAR comma
ENCODING 44
SWIDTH 278 0
DWIDTH 3 0
BBX 2 5 1 -3
BITMAP
C0
C0
40
40
80
ENDCHAR

STARTCHAR minus
ENCODING 45
SWIDTH 584 0
DWIDTH 7 0
BBX 6 2 1 2
BITMAP
FC
FC
ENDCHAR

STARTCHAR period
ENCODING 46
SWIDTH 278 0
DWIDTH 3 0
BBX 2 2 1 0
BITMAP
C0
C0
ENDCHAR

STARTCHAR slash
ENCODING 47
SWIDTH 278 0
DWIDTH 3 0
BBX 3 9 0 0
BITMAP
20
20
20
40
40
40
40
80
80
ENDCHAR

STARTCHAR zero
ENCODING 48
SWIDTH 556 0
DWIDTH 7 0
BBX 6 9 0 0
BITMAP
78
FC
CC
CC
CC
CC
CC
FC
78
ENDCHAR

STARTCHAR one
ENCODING 49
SWIDTH 556 0
DWIDTH 7 0
BBX 4 9 1 0
BITMAP
10
30
F0
30
30
30
30
30
30
ENDCHAR

STARTCHAR two
ENCODING 50
SWIDTH 556 0
DWIDTH 7 0
BBX 6 9 0 0
BITMAP
78
FC
CC
CC
38
70
E0
FC
FC
ENDCHAR

STARTCHAR three
ENCODING 51
SWIDTH 556 0
DWIDTH 7 0
BBX 6 9 0 0
BITMAP
78
FC
CC
CC
38
0C
CC
FC
78
ENDCHAR

STARTCHAR four
ENCODING 52
SWIDTH 556 0
DWIDTH 7 0
BBX 6 9 0 0
BITMAP
18
38
38
58
98
FC
FC
18
18
ENDCHAR

STARTCHAR five
ENCODING 53
SWIDTH 556 0
DWIDTH 7 0
BBX 6 9 0 0
BITMAP
7C
7C
40
F8
FC
CC
0C
FC
78
ENDCHAR

STARTCHAR six
ENCODING 54
SWIDTH 556 0
DWIDTH 7 0
BBX 6 9 0 0
BITMAP
38
7C
C0
F8
FC
CC
CC
7C
78
ENDCHAR

STARTCHAR seven
ENCODING 55
SWIDTH 556 0
DWIDTH 7 0
BBX 6 9 0 0
BITMAP
FC
FC
1C
38
30
70
60
60
60
ENDCHAR

STARTCHAR eight
ENCODING 56
SWIDTH 556 0
DWIDTH 7 0
BBX 6 9 0 0
BITMAP
78
FC
CC
CC
78
CC
CC
FC
78
ENDCHAR

STARTCHAR nine
ENCODING 57
SWIDTH 556 0
DWIDTH 7 0
BBX 6 9 0 0
BITMAP
78
F8
CC
CC
FC
7C
0C
F8
70
ENDCHAR

STARTCHAR colon
ENCODING 58
SWIDTH 333 0
DWIDTH 4 0
BBX 2 6 1 0
BITMAP
C0
C0
00
00
C0
C0
ENDCHAR

STARTCHAR semicolon
ENCODING 59
SWIDTH 333 0
DWIDTH 4 0
BBX 2 9 1 -3
BITMAP
C0
C0
00
00
C0
C0
40
40
80
ENDCHAR

STARTCHAR less
ENCODING 60
SWIDTH 584 0
DWIDTH 7 0
BBX 6 6 0 0
BITMAP
0C
7C
F0
F0
7C
0C
ENDCHAR

STARTCHAR equal
ENCODING 61
SWIDTH 584 0
DWIDTH 7 0
BBX 6 5 1 1
BITMAP
FC
FC
00
FC
FC
ENDCHAR

STARTCHAR greater
ENCODING 62
SWIDTH 584 0
DWIDTH 7 0
BBX 6 6 0 0
BITMAP
C0
F8
3C
3C
F8
C0
ENDCHAR

STARTCHAR question
ENCODING 63
SWIDTH 611 0
DWIDTH 7 0
BBX 6 10 1 0
BITMAP
78
FC
CC
CC
1C
38
30
00
30
30
ENDCHAR

STARTCHAR at
ENCODING 64
SWIDTH 975 0
DWIDTH 12 0
BBX 13 12 0 -3
BITMAP
0FC0
1860
6030
6018
C7D8
C9D8
D998
D9B0
CFE0
6000
3800
0FC0
ENDCHAR

STARTCHAR A
ENCODING 65
SWIDTH 722 0
DWIDTH 9 0
BBX 8 9 0 0
BITMAP
18
3C
3C
24
66
7E
7E
C3
C3
ENDCHAR

STARTCHAR B
ENCODING 66
SWIDTH 722 0
DWIDTH 9 0
BBX 7 9 1 0
BITMAP
FC
FE
C6
FE
FC
C6
C6
FE
FC
ENDCHAR

STARTCHAR C
ENCODING 67
SWIDTH 722 0
DWIDTH 9 0
BBX 8 9 0 0
BITMAP
3E
7F
E3
C0
C0
C3
E7
7E
3C
ENDCHAR

STARTCHAR D
ENCODING 68
SWIDTH 722 0
DWIDTH 9 0
BBX 7 9 1 0
BITMAP
F8
FC
CE
C6
C6
C6
CE
FC
F8
ENDCHAR

STARTCHAR E
ENCODING 69
SWIDTH 667 0
DWIDTH 8 0
BBX 7 9 1 0
BITMAP
FE
FE
C0
FC
FC
C0
C0
FE
FE
ENDCHAR

STARTCHAR F
ENCODING 70
SWIDTH 611 0
DWIDTH 7 0
BBX 6 9 1 0
BITMAP
FC
FC
C0
FC
FC
C0
C0
C0
C0
ENDCHAR

STARTCHAR G
ENCODING 71
SWIDTH 778 0
DWIDTH 9 0
BBX 9 9 0 0
BITMAP
1E00
7F80
E180
C000
C780
C780
E180
7F80
3D80
ENDCHAR

STARTCHAR H
ENCODING 72
SWIDTH 722 0
DWIDTH 9 0
BBX 7 9 1 0
BITMAP
C6
C6
C6
FE
FE
C6
C6
C6
C6
ENDCHAR

STARTCHAR I
ENCODING 73
SWIDTH 278 0
DWIDTH 3 0
BBX 2 9 1 0
BITMAP
C0
C0
C0
C0
C0
C0
C0
C0
C0
ENDCHAR

STARTCHAR J
ENCODING 74
SWIDTH 556 0
DWIDTH 7 0
BBX 6 9 0 0
BITMAP
0C
0C
0C
0C
0C
CC
CC
FC
78
ENDCHAR

STARTCHAR K
ENCODING 75
SWIDTH 722 0
DWIDTH 9 0
BBX 8 9 1 0
BITMAP
C7
CE
DC
F8
F8
D8
CC
C6
C7
ENDCHAR

STARTCHAR L
ENCODING 76
SWIDTH 611 0
DWIDTH 7 0
BBX 6 9 1 0
BITMAP
C0
C0
C0
C0
C0
C0
C0
FC
FC
ENDCHAR

STARTCHAR M
ENCODING 77
SWIDTH 833 0
DWIDTH 10 0
BBX 9 9 1 0
BITMAP
E380
F780
F780
F780
F780
DD80
DD80
DD80
DD80
ENDCHAR

STARTCHAR N
ENCODING 78
SWIDTH 722 0
DWIDTH 9 0
BBX 7 9 1 0
BITMAP
C6
E6
F6
F6
FE
DE
DE
CE
C6
ENDCHAR

STARTCHAR O
ENCODING 79
SWIDTH 778 0
DWIDTH 9 0
BBX 9 9 0 0
BITMAP
3E00
7F00
E380
C180
C180
C180
E380
7F00
3E00
ENDCHAR

STARTCHAR P
ENCODING 80
SWIDTH 667 0
DWIDTH 8 0
BBX 7 9 1 0
BITMAP
FC
FE
C6
C6
FE
FC
C0
C0
C0
ENDCHAR

STARTCHAR Q
ENCODING 81
SWIDTH 778 0
DWIDTH 9 0
BBX 9 9 0 0
BITMAP
3E00
7F00
E380
C180
C180
C580
E780
7F00
3D80
ENDCHAR

STARTCHAR R
ENCODING 82
SWIDTH 722 0
DWIDTH 9 0
BBX 7 9 1 0
BITMAP
FC
FE
C6
C6
FC
FE
C6
C6
C6
ENDCHAR

STARTCHAR S
ENCODING 83
SWIDTH 667 0
DWIDTH 8 0
BBX 7 9 0 0
BITMAP
7C
FE
C6
C0
7C
06
C6
FE
7C
ENDCHAR

STARTCHAR T
ENCODING 84
SWIDTH 611 0
DWIDTH 7 0
BBX 8 9 0 0
BITMAP
FF
FF
18
18
18
18
18
18
18
ENDCHAR

STARTCHAR U
ENCODING 85
SWIDTH 722 0
DWIDTH 9 0
BBX 7 9 1 0
BITMAP
C6
C6
C6
C6
C6
C6
C6
FE
7C
ENDCHAR

STARTCHAR V
ENCODING 86
SWIDTH 667 0
DWIDTH 8 0
BBX 8 9 0 0
BITMAP
C3
C3
66
66
66
3C
3C
18
18
ENDCHAR

STARTCHAR W
ENCODING 87
SWIDTH 944 0
DWIDTH 11 0
BBX 11 9 0 0
BITMAP
CE60
CE60
EEE0
6EC0
7BC0
7BC0
3180
3180
3180
ENDCHAR

STARTCHAR X
ENCODING 88
SWIDTH 667 0
DWIDTH 8 0
BBX 8 9 0 0
BITMAP
E7
66
7C
3C
18
3C
7C
66
E7
ENDCHAR

STARTCHAR Y
ENCODING 89
SWIDTH 667 0
DWIDTH 8 0
BBX 8 9 0 0
BITMAP
C3
66
66
3C
3C
18
18
18
18
ENDCHAR

STARTCHAR Z
ENCODING 90
SWIDTH 611 0
DWIDTH 7 0
BBX 7 9 0 0
BITMAP
FE
FE
0C
18
38
70
E0
FE
FE
ENDCHAR

STARTCHAR bracketleft
ENCODING 91
SWIDTH 333 0
DWIDTH 4 0
BBX 3 12 1 -3
BITMAP
E0
E0
C0
C0
C0
C0
C0
C0
C0
C0
E0
E0
ENDCHAR

STARTCHAR backslash
ENCODING 92
SWIDTH 278 0
DWIDTH 3 0
BBX 4 9 0 0
BITMAP
80
80
40
40
40
20
20
20
10
ENDCHAR

STARTCHAR bracketright
ENCODING 93
SWIDTH 333 0
DWIDTH 4 0
BBX 3 12 0 -3
BITMAP
E0
E0
60
60
60
60
60
60
60
60
E0
E0
ENDCHAR

STARTCHAR asciicircum
ENCODING 94
SWIDTH 584 0
DWIDTH 7 0
BBX 6 5 1 4
BITMAP
30
78
78
FC
CC
ENDCHAR

STARTCHAR underscore
ENCODING 95
SWIDTH 556 0
DWIDTH 7 0
BBX 7 2 0 -3
BITMAP
FE
FE
ENDCHAR

STARTCHAR quoteleft
ENCODING 96
SWIDTH 278 0
DWIDTH 3 0
BBX 2 3 1 6
BITMAP
C0
C0
C0
ENDCHAR

STARTCHAR a
ENCODING 97
SWIDTH 556 0
DWIDTH 7 0
BBX 6 7 0 0
BITMAP
78
FC
0C
7C
CC
FC
6C
ENDCHAR

STARTCHAR b
ENCODING 98
SWIDTH 611 0
DWIDTH 7 0
BBX 7 9 0 0
BITMAP
C0
C0
FC
FE
C6
C6
C6
FE
FC
ENDCHAR

STARTCHAR c
ENCODING 99
SWIDTH 556 0
DWIDTH 7 0
BBX 6 7 0 0
BITMAP
78
FC
CC
C0
CC
FC
78
ENDCHAR

STARTCHAR d
ENCODING 100
SWIDTH 611 0
DWIDTH 7 0
BBX 7 9 0 0
BITMAP
06
06
7E
FE
C6
C6
C6
FE
7E
ENDCHAR

STARTCHAR e
ENCODING 101
SWIDTH 556 0
DWIDTH 7 0
BBX 6 7 0 0
BITMAP
78
FC
CC
FC
C0
FC
78
ENDCHAR

STARTCHAR f
ENCODING 102
SWIDTH 333 0
DWIDTH 4 0
BBX 4 9 0 0
BITMAP
70
60
F0
60
60
60
60
60
60
ENDCHAR

STARTCHAR g
ENCODING 103
SWIDTH 611 0
DWIDTH 7 0
BBX 6 10 0 -3
BITMAP
7C
FC
CC
CC
CC
FC
7C
8C
FC
78
ENDCHAR

STARTCHAR h
ENCODING 104
SWIDTH 611 0
DWIDTH 7 0
BBX 6 9 1 0
BITMAP
C0
C0
F8
FC
CC
CC
CC
CC
CC
ENDCHAR

STARTCHAR i
ENCODING 105
SWIDTH 278 0
DWIDTH 3 0
BBX 2 9 1 0
BITMAP
C0
00
C0
C0
C0
C0
C0
C0
C0
ENDCHAR

STARTCHAR j
ENCODING 106
SWIDTH 278 0
DWIDTH 3 0
BBX 3 12 0 -3
BITMAP
60
00
60
60
60
60
60
60
60
60
E0
E0
ENDCHAR

STARTCHAR k
ENCODING 107
SWIDTH 556 0
DWIDTH 7 0
BBX 6 9 1 0
BITMAP
C0
C0
CC
D8
F0
F8
D8
D8
CC
ENDCHAR

STARTCHAR l
ENCODING 108
SWIDTH 278 0
DWIDTH 3 0
BBX 2 9 1 0
BITMAP
C0
C0
C0
C0
C0
C0
C0
C0
C0
ENDCHAR

STARTCHAR m
ENCODING 109
SWIDTH 889 0
DWIDTH 11 0
BBX 10 7 0 0
BITMAP
FB80
FFC0
CCC0
CCC0
CCC0
CCC0
CCC0
ENDCHAR

STARTCHAR n
ENCODING 110
SWIDTH 611 0
DWIDTH 7 0
BBX 6 7 1 0
BITMAP
F8
FC
CC
CC
CC
CC
CC
ENDCHAR

STARTCHAR o
ENCODING 111
SWIDTH 611 0
DWIDTH 7 0
BBX 7 7 0 0
BITMAP
7C
FE
C6
C6
C6
FE
7C
ENDCHAR

STARTCHAR p
ENCODING 112
SWIDTH 611 0
DWIDTH 7 0
BBX 7 10 0 -3
BITMAP
FC
FE
C6
C6
C6
FE
FC
C0
C0
C0
ENDCHAR

STARTCHAR q
ENCODING 113
SWIDTH 611 0
DWIDTH 7 0
BBX 7 10 0 -3
BITMAP
7E
FE
C6
C6
C6
FE
7E
06
06
06
ENDCHAR

STARTCHAR r
ENCODING 114
SWIDTH 389 0
DWIDTH 5 0
BBX 4 7 1 0
BITMAP
F0
F0
C0
C0
C0
C0
C0
ENDCHAR

STARTCHAR s
ENCODING 115
SWIDTH 556 0
DWIDTH 7 0
BBX 6 7 0 0
BITMAP
78
FC
E0
78
1C
FC
78
ENDCHAR

STARTCHAR t
ENCODING 116
SWIDTH 333 0
DWIDTH 4 0
BBX 4 9 0 0
BITMAP
60
60
F0
60
60
60
60
60
70
ENDCHAR

STARTCHAR u
ENCODING 117
SWIDTH 611 0
DWIDTH 7 0
BBX 6 7 1 0
BITMAP
CC
CC
CC
CC
CC
FC
7C
ENDCHAR

STARTCHAR v
ENCODING 118
SWIDTH 556 0
DWIDTH 7 0
BBX 7 7 0 0
BITMAP
C6
C6
6C
7C
38
38
10
ENDCHAR

STARTCHAR w
ENCODING 119
SWIDTH 778 0
DWIDTH 9 0
BBX 9 7 0 0
BITMAP
DD80
DD80
DD80
7F00
7700
7700
7700
ENDCHAR

STARTCHAR x
ENCODING 120
SWIDTH 556 0
DWIDTH 7 0
BBX 6 7 0 0
BITMAP
CC
78
78
30
78
78
CC
ENDCHAR

STARTCHAR y
ENCODING 121
SWIDTH 556 0
DWIDTH 7 0
BBX 7 10 0 -3
BITMAP
C6
C6
6C
7C
38
38
38
30
70
60
ENDCHAR

STARTCHAR z
ENCODING 122
SWIDTH 500 0
DWIDTH 6 0
BBX 5 7 0 0
BITMAP
F8
F8
38
70
E0
F8
F8
ENDCHAR

STARTCHAR braceleft
ENCODING 123
SWIDTH 389 0
DWIDTH 5 0
BBX 4 12 0 -3
BITMAP
70
70
60
60
60
E0
60
60
60
60
70
30
ENDCHAR

STARTCHAR bar
ENCODING 124
SWIDTH 280 0
DWIDTH 3 0
BBX 1 12 1 -3
BITMAP
80
80
80
80
80
80
80
80
80
80
80
80
ENDCHAR

STARTCHAR braceright
ENCODING 125
SWIDTH 389 0
DWIDTH 5 0
BBX 4 12 9 -3
BITMAP
C0
E0
60
60
60
70
60
60
60
60
E0
C0
ENDCHAR

STARTCHAR asciitilde
ENCODING 126
SWIDTH 584 0
DWIDTH 7 0
BBX 6 2 0 2
BITMAP
EC
DC
ENDCHAR

STARTCHAR exclamdown
ENCODING 161
SWIDTH 333 0
DWIDTH 4 0
BBX 2 10 1 -3
BITMAP
C0
C0
00
40
C0
C0
C0
C0
C0
C0
ENDCHAR

STARTCHAR cent
ENCODING 162
SWIDTH 556 0
DWIDTH 7 0
BBX 7 11 0 -3
BITMAP
10
7C
FE
D0
D0
D0
FE
7C
10
10
10
ENDCHAR

STARTCHAR sterling
ENCODING 163
SWIDTH 556 0
DWIDTH 7 0
BBX 6 9 0 0
BITMAP
78
FC
CC
C0
F0
60
60
FC
FC
ENDCHAR

STARTCHAR currency
ENCODING 164
SWIDTH 556 0
DWIDTH 7 0
BBX 6 7 0 1
BITMAP
84
78
78
48
78
78
84
ENDCHAR

STARTCHAR yen
ENCODING 165
SWIDTH 556 0
DWIDTH 7 0
BBX 8 9 0 0
BITMAP
E7
66
3C
3C
7E
18
7E
18
18
ENDCHAR

STARTCHAR brokenbar
ENCODING 166
SWIDTH 280 0
DWIDTH 3 0
BBX 1 12 1 -3
BITMAP
80
80
80
80
80
00
80
80
80
80
80
80
ENDCHAR

STARTCHAR section
ENCODING 167
SWIDTH 556 0
DWIDTH 7 0
BBX 5 12 1 -3
BITMAP
70
F8
C0
60
F0
98
C8
68
38
18
F8
70
ENDCHAR

STARTCHAR dieresis
ENCODING 168
SWIDTH 333 0
DWIDTH 4 0
BBX 3 2 0 7
BITMAP
A0
A0
ENDCHAR

STARTCHAR copyright
ENCODING 169
SWIDTH 737 0
DWIDTH 9 0
BBX 9 9 0 0
BITMAP
3E00
6300
DD80
A280
A080
A280
DD80
6300
3E00
ENDCHAR

STARTCHAR ordfeminine
ENCODING 170
SWIDTH 370 0
DWIDTH 4 0
BBX 3 5 1 4
BITMAP
E0
60
A0
E0
E0
ENDCHAR

STARTCHAR guillemotleft
ENCODING 171
SWIDTH 556 0
DWIDTH 7 0
BBX 5 6 1 1
BITMAP
48
D8
90
90
D8
48
ENDCHAR

STARTCHAR logicalnot
ENCODING 172
SWIDTH 584 0
DWIDTH 7 0
BBX 7 4 0 1
BITMAP
FE
FE
06
06
ENDCHAR

STARTCHAR hyphen
ENCODING 173
SWIDTH 333 0
DWIDTH 4 0
BBX 3 2 0 2
BITMAP
E0
E0
ENDCHAR

STARTCHAR registered
ENCODING 174
SWIDTH 737 0
DWIDTH 9 0
BBX 9 9 0 0
BITMAP
3E00
6300
FF80
A280
BC80
A480
E780
6300
3E00
ENDCHAR

STARTCHAR macron
ENCODING 175
SWIDTH 333 0
DWIDTH 4 0
BBX 4 1 0 8
BITMAP
F0
ENDCHAR

STARTCHAR degree
ENCODING 176
SWIDTH 400 0
DWIDTH 7 0
BBX 4 4 2 5
BITMAP
60
90
90
60
ENDCHAR

STARTCHAR plusminus
ENCODING 177
SWIDTH 584 0
DWIDTH 7 0
BBX 6 8 1 0
BITMAP
30
30
FC
FC
30
00
FC
FC
ENDCHAR

STARTCHAR twosuperior
ENCODING 178
SWIDTH 333 0
DWIDTH 4 0
BBX 3 5 -3 4
BITMAP
E0
A0
60
C0
E0
ENDCHAR

STARTCHAR threesuperior
ENCODING 179
SWIDTH 333 0
DWIDTH 4 0
BBX 3 5 -3 4
BITMAP
E0
A0
40
20
E0
ENDCHAR

STARTCHAR acute
ENCODING 180
SWIDTH 333 0
DWIDTH 4 0
BBX 3 2 2 7
BITMAP
60
C0
ENDCHAR

STARTCHAR mu
ENCODING 181
SWIDTH 611 0
DWIDTH 7 0
BBX 7 10 0 -3
BITMAP
CC
CC
CC
CC
CC
FE
F6
C0
C0
C0
ENDCHAR

STARTCHAR paragraph
ENCODING 182
SWIDTH 556 0
DWIDTH 7 0
BBX 7 12 0 -3
BITMAP
7E
74
F4
F4
F4
F4
74
14
14
14
14
14
ENDCHAR

STARTCHAR periodcentered
ENCODING 183
SWIDTH 278 0
DWIDTH 6 0
BBX 2 2 2 3
BITMAP
C0
C0
ENDCHAR

STARTCHAR cedilla
ENCODING 184
SWIDTH 333 0
DWIDTH 4 0
BBX 3 3 0 -3
BITMAP
20
A0
E0
ENDCHAR

STARTCHAR onesuperior
ENCODING 185
SWIDTH 333 0
DWIDTH 4 0
BBX 2 5 -4 4
BITMAP
40
C0
40
40
40
ENDCHAR

STARTCHAR ordmasculine
ENCODING 186
SWIDTH 365 0
DWIDTH 4 0
BBX 4 5 0 4
BITMAP
60
90
90
60
F0
ENDCHAR

STARTCHAR guillemotright
ENCODING 187
SWIDTH 556 0
DWIDTH 7 0
BBX 4 6 1 1
BITMAP
A0
F0
50
50
F0
A0
ENDCHAR

STARTCHAR onequarter
ENCODING 188
SWIDTH 834 0
DWIDTH 10 0
BBX 9 9 -4 0
BITMAP
4200
C400
4400
4800
5B00
1300
3500
2780
4100
ENDCHAR

STARTCHAR onehalf
ENCODING 189
SWIDTH 834 0
DWIDTH 10 0
BBX 8 9 -4 0
BITMAP
42
C4
44
48
5F
15
33
26
47
ENDCHAR

STARTCHAR threequarters
ENCODING 190
SWIDTH 834 0
DWIDTH 10 0
BBX 10 9 -3 0
BITMAP
E100
A200
4200
2400
ED80
0980
1A80
13C0
2080
ENDCHAR

STARTCHAR questiondown
ENCODING 191
SWIDTH 611 0
DWIDTH 7 0
BBX 6 10 1 -3
BITMAP
30
30
00
30
70
E0
CC
CC
FC
78
ENDCHAR

STARTCHAR Agrave
ENCODING 192
SWIDTH 722 0
DWIDTH 9 0
BBX 8 12 0 0
BITMAP
30
18
00
18
3C
3C
24
66
7E
7E
C3
C3
ENDCHAR

STARTCHAR Aacute
ENCODING 193
SWIDTH 722 0
DWIDTH 9 0
BBX 8 12 0 0
BITMAP
06
0C
00
18
3C
3C
24
66
7E
7E
C3
C3
ENDCHAR

STARTCHAR Acircumflex
ENCODING 194
SWIDTH 722 0
DWIDTH 9 0
BBX 8 12 0 0
BITMAP
18
3C
00
18
3C
3C
24
66
7E
7E
C3
C3
ENDCHAR

STARTCHAR Atilde
ENCODING 195
SWIDTH 722 0
DWIDTH 9 0
BBX 8 12 0 0
BITMAP
34
2C
00
18
3C
3C
24
66
7E
7E
C3
C3
ENDCHAR

STARTCHAR Adieresis
ENCODING 196
SWIDTH 722 0
DWIDTH 9 0
BBX 8 12 0 0
BITMAP
14
14
00
18
3C
3C
24
66
7E
7E
C3
C3
ENDCHAR

STARTCHAR Aring
ENCODING 197
SWIDTH 722 0
DWIDTH 9 0
BBX 8 12 0 0
BITMAP
08
14
08
18
3C
3C
24
66
7E
7E
C3
C3
ENDCHAR

STARTCHAR AE
ENCODING 198
SWIDTH 1000 0
DWIDTH 12 0
BBX 11 9 0 0
BITMAP
1FE0
3FE0
3600
37E0
67E0
7E00
7E00
C7E0
C7E0
ENDCHAR

STARTCHAR Ccedilla
ENCODING 199
SWIDTH 722 0
DWIDTH 9 0
BBX 8 12 0 -3
BITMAP
3E
7F
E3
C0
C0
C3
E7
7E
3C
08
28
38
ENDCHAR

STARTCHAR Egrave
ENCODING 200
SWIDTH 667 0
DWIDTH 8 0
BBX 7 12 1 0
BITMAP
30
18
00
FE
FE
C0
FC
FC
C0
C0
FE
FE
ENDCHAR

STARTCHAR Eacute
ENCODING 201
SWIDTH 667 0
DWIDTH 8 0
BBX 7 12 1 0
BITMAP
0C
18
00
FE
FE
C0
FC
FC
C0
C0
FE
FE
ENDCHAR

STARTCHAR Ecircumflex
ENCODING 202
SWIDTH 667 0
DWIDTH 8 0
BBX 7 12 1 0
BITMAP
30
78
00
FE
FE
C0
FC
FC
C0
C0
FE
FE
ENDCHAR

STARTCHAR Edieresis
ENCODING 203
SWIDTH 667 0
DWIDTH 8 0
BBX 7 12 1 0
BITMAP
28
28
00
FE
FE
C0
FC
FC
C0
C0
FE
FE
ENDCHAR

STARTCHAR Igrave
ENCODING 204
SWIDTH 278 0
DWIDTH 3 0
BBX 3 12 2 0
BITMAP
C0
60
00
60
60
60
60
60
60
60
60
60
ENDCHAR

STARTCHAR Iacute
ENCODING 205
SWIDTH 278 0
DWIDTH 3 0
BBX 3 12 1 0
BITMAP
60
C0
00
C0
C0
C0
C0
C0
C0
C0
C0
C0
ENDCHAR

STARTCHAR Icircumflex
ENCODING 206
SWIDTH 278 0
DWIDTH 3 0
BBX 4 12 2 0
BITMAP
60
F0
00
60
60
60
60
60
60
60
60
60
ENDCHAR

STARTCHAR Idieresis
ENCODING 207
SWIDTH 278 0
DWIDTH 3 0
BBX 3 12 2 0
BITMAP
A0
A0
00
C0
C0
C0
C0
C0
C0
C0
C0
C0
ENDCHAR

STARTCHAR Eth
ENCODING 208
SWIDTH 722 0
DWIDTH 9 0
BBX 9 9 0 0
BITMAP
7E00
7F00
6380
6180
F980
6180
6380
7F00
7E00
ENDCHAR

STARTCHAR Ntilde
ENCODING 209
SWIDTH 722 0
DWIDTH 9 0
BBX 7 12 1 0
BITMAP
68
58
00
C6
E6
F6
F6
FE
DE
DE
CE
C6
ENDCHAR

STARTCHAR Ograve
ENCODING 210
SWIDTH 778 0
DWIDTH 9 0
BBX 9 12 0 0
BITMAP
1800
0C00
0000
3E00
7F00
E380
C180
C180
C180
E380
7F00
3E00
ENDCHAR

STARTCHAR Oacute
ENCODING 211
SWIDTH 778 0
DWIDTH 9 0
BBX 9 12 0 0
BITMAP
0600
0C00
0000
3E00
7F00
E380
C180
C180
C180
E380
7F00
3E00
ENDCHAR

STARTCHAR Ocircumflex
ENCODING 212
SWIDTH 778 0
DWIDTH 9 0
BBX 9 12 0 0
BITMAP
1800
3C00
0000
3E00
7F00
E380
C180
C180
C180
E380
7F00
3E00
ENDCHAR

STARTCHAR Otilde
ENCODING 213
SWIDTH 778 0
DWIDTH 9 0
BBX 9 12 0 0
BITMAP
3400
2C00
0000
3E00
7F00
E380
C180
C180
C180
E380
7F00
3E00
ENDCHAR

STARTCHAR Odieresis
ENCODING 214
SWIDTH 778 0
DWIDTH 9 0
BBX 9 12 0 0
BITMAP
1400
1400
0000
3E00
7F00
E380
C180
C180
C180
E380
7F00
3E00
ENDCHAR

STARTCHAR multiply
ENCODING 215
SWIDTH 584 0
DWIDTH 7 0
BBX 5 5 1 0
BITMAP
D8
F8
70
F8
D8
ENDCHAR

STARTCHAR Oslash
ENCODING 216
SWIDTH 778 0
DWIDTH 9 0
BBX 9 9 0 0
BITMAP
3F80
7F00
E380
C580
C980
D180
E380
7F00
BE00
ENDCHAR

STARTCHAR Ugrave
ENCODING 217
SWIDTH 722 0
DWIDTH 9 0
BBX 7 12 1 0
BITMAP
30
18
00
C6
C6
C6
C6
C6
C6
C6
FE
7C
ENDCHAR

STARTCHAR Uacute
ENCODING 218
SWIDTH 722 0
DWIDTH 9 0
BBX 7 12 1 0
BITMAP
0C
18
00
C6
C6
C6
C6
C6
C6
C6
FE
7C
ENDCHAR

STARTCHAR Ucircumflex
ENCODING 219
SWIDTH 722 0
DWIDTH 9 0
BBX 7 12 1 0
BITMAP
18
3C
00
C6
C6
C6
C6
C6
C6
C6
FE
7C
ENDCHAR

STARTCHAR Udieresis
ENCODING 220
SWIDTH 722 0
DWIDTH 9 0
BBX 7 12 1 0
BITMAP
28
28
00
C6
C6
C6
C6
C6
C6
C6
FE
7C
ENDCHAR

STARTCHAR Yacute
ENCODING 221
SWIDTH 667 0
DWIDTH 8 0
BBX 8 12 0 0
BITMAP
06
0C
00
C3
66
66
3C
3C
18
18
18
18
ENDCHAR

STARTCHAR Thorn
ENCODING 222
SWIDTH 667 0
DWIDTH 8 0
BBX 7 9 1 0
BITMAP
C0
FC
FE
C6
C6
FE
FC
C0
C0
ENDCHAR

STARTCHAR germandbls
ENCODING 223
SWIDTH 611 0
DWIDTH 7 0
BBX 6 9 1 0
BITMAP
78
FC
CC
DC
DC
CC
CC
DC
D8
ENDCHAR

STARTCHAR agrave
ENCODING 224
SWIDTH 556 0
DWIDTH 7 0
BBX 6 10 0 0
BITMAP
60
30
00
78
FC
0C
7C
CC
FC
6C
ENDCHAR

STARTCHAR aacute
ENCODING 225
SWIDTH 556 0
DWIDTH 7 0
BBX 6 10 0 0
BITMAP
0C
18
00
78
FC
0C
7C
CC
FC
6C
ENDCHAR

STARTCHAR acircumflex
ENCODING 226
SWIDTH 556 0
DWIDTH 7 0
BBX 6 10 0 0
BITMAP
30
78
00
78
FC
0C
7C
CC
FC
6C
ENDCHAR

STARTCHAR atilde
ENCODING 227
SWIDTH 556 0
DWIDTH 7 0
BBX 6 10 0 0
BITMAP
68
58
00
78
FC
0C
7C
CC
FC
6C
ENDCHAR

STARTCHAR adieresis
ENCODING 228
SWIDTH 556 0
DWIDTH 7 0
BBX 6 10 0 0
BITMAP
28
28
00
78
FC
0C
7C
CC
FC
6C
ENDCHAR

STARTCHAR aring
ENCODING 229
SWIDTH 556 0
DWIDTH 7 0
BBX 6 10 0 0
BITMAP
10
28
10
78
FC
0C
7C
CC
FC
6C
ENDCHAR

STARTCHAR ae
ENCODING 230
SWIDTH 889 0
DWIDTH 11 0
BBX 10 7 0 0
BITMAP
7780
FFC0
0CC0
7FC0
CC00
FFC0
7780
ENDCHAR

STARTCHAR ccedilla
ENCODING 231
SWIDTH 556 0
DWIDTH 7 0
BBX 6 10 0 -3
BITMAP
78
FC
CC
C0
CC
FC
78
10
50
70
ENDCHAR

STARTCHAR egrave
ENCODING 232
SWIDTH 556 0
DWIDTH 7 0
BBX 6 10 0 0
BITMAP
60
30
00
78
FC
CC
FC
C0
FC
78
ENDCHAR

STARTCHAR eacute
ENCODING 233
SWIDTH 556 0
DWIDTH 7 0
BBX 6 10 0 0
BITMAP
0C
18
00
78
FC
CC
FC
C0
FC
78
ENDCHAR

STARTCHAR ecircumflex
ENCODING 234
SWIDTH 556 0
DWIDTH 7 0
BBX 6 10 0 0
BITMAP
30
78
00
78
FC
CC
FC
C0
FC
78
ENDCHAR

STARTCHAR edieresis
ENCODING 235
SWIDTH 556 0
DWIDTH 7 0
BBX 6 10 0 0
BITMAP
28
28
00
78
FC
CC
FC
C0
FC
78
ENDCHAR

STARTCHAR igrave
ENCODING 236
SWIDTH 278 0
DWIDTH 3 0
BBX 3 10 2 0
BITMAP
C0
60
00
60
60
60
60
60
60
60
ENDCHAR

STARTCHAR iacute
ENCODING 237
SWIDTH 278 0
DWIDTH 3 0
BBX 3 10 1 0
BITMAP
60
C0
00
C0
C0
C0
C0
C0
C0
C0
ENDCHAR

STARTCHAR icircumflex
ENCODING 238
SWIDTH 278 0
DWIDTH 3 0
BBX 4 10 2 0
BITMAP
60
F0
00
60
60
60
60
60
60
60
ENDCHAR

STARTCHAR idieresis
ENCODING 239
SWIDTH 278 0
DWIDTH 3 0
BBX 3 10 2 0
BITMAP
A0
A0
00
C0
C0
C0
C0
C0
C0
C0
ENDCHAR

STARTCHAR eth
ENCODING 240
SWIDTH 611 0
DWIDTH 7 0
BBX 7 9 0 0
BITMAP
7C
18
7C
FC
C6
C6
C6
FE
7C
ENDCHAR

STARTCHAR ntilde
ENCODING 241
SWIDTH 611 0
DWIDTH 7 0
BBX 6 10 1 0
BITMAP
68
58
00
F8
FC
CC
CC
CC
CC
CC
ENDCHAR

STARTCHAR ograve
ENCODING 242
SWIDTH 611 0
DWIDTH 7 0
BBX 7 10 0 0
BITMAP
30
18
00
7C
FE
C6
C6
C6
FE
7C
ENDCHAR

STARTCHAR oacute
ENCODING 243
SWIDTH 611 0
DWIDTH 7 0
BBX 7 10 0 0
BITMAP
0C
18
00
7C
FE
C6
C6
C6
FE
7C
ENDCHAR

STARTCHAR ocircumflex
ENCODING 244
SWIDTH 611 0
DWIDTH 7 0
BBX 7 10 0 0
BITMAP
18
3C
00
7C
FE
C6
C6
C6
FE
7C
ENDCHAR

STARTCHAR otilde
ENCODING 245
SWIDTH 611 0
DWIDTH 7 0
BBX 7 10 0 0
BITMAP
34
2C
00
7C
FE
C6
C6
C6
FE
7C
ENDCHAR

STARTCHAR odieresis
ENCODING 246
SWIDTH 611 0
DWIDTH 7 0
BBX 7 10 0 0
BITMAP
14
14
00
7C
FE
C6
C6
C6
FE
7C
ENDCHAR

STARTCHAR divide
ENCODING 247
SWIDTH 584 0
DWIDTH 7 0
BBX 6 6 1 0
BITMAP
30
30
FC
FC
30
30
ENDCHAR

STARTCHAR oslash
ENCODING 248
SWIDTH 611 0
DWIDTH 7 0
BBX 7 7 0 0
BITMAP
7E
FE
CE
D6
E6
FE
FC
ENDCHAR

STARTCHAR ugrave
ENCODING 249
SWIDTH 611 0
DWIDTH 7 0
BBX 6 10 1 0
BITMAP
60
30
00
CC
CC
CC
CC
CC
FC
7C
ENDCHAR

STARTCHAR uacute
ENCODING 250
SWIDTH 611 0
DWIDTH 7 0
BBX 6 10 1 0
BITMAP
0C
18
00
CC
CC
CC
CC
CC
FC
7C
ENDCHAR

STARTCHAR ucircumflex
ENCODING 251
SWIDTH 611 0
DWIDTH 7 0
BBX 6 10 1 0
BITMAP
30
78
00
CC
CC
CC
CC
CC
FC
7C
ENDCHAR

STARTCHAR udieresis
ENCODING 252
SWIDTH 611 0
DWIDTH 7 0
BBX 6 10 1 0
BITMAP
28
28
00
CC
CC
CC
CC
CC
FC
7C
ENDCHAR

STARTCHAR yacute
ENCODING 253
SWIDTH 556 0
DWIDTH 7 0
BBX 7 13 0 -3
BITMAP
0C
18
00
C6
C6
6C
7C
7C
38
38
30
70
60
ENDCHAR

STARTCHAR thorn
ENCODING 254
SWIDTH 611 0
DWIDTH 7 0
BBX 7 12 0 -3
BITMAP
C0
C0
FC
FE
C6
C6
C6
FE
FC
C0
C0
C0
ENDCHAR

STARTCHAR ydieresis
ENCODING 255
SWIDTH 556 0
DWIDTH 7 0
BBX 7 13 0 -3
BITMAP
28
28
00
C6
C6
6C
7C
78
38
38
30
70
60
ENDCHAR
ENDFONT
